<?xml version="1.0" encoding="UTF-8" standalone="no"?>
<!-- Created with Inkscape (http://www.inkscape.org/) -->

<svg
   xmlns:dc="http://purl.org/dc/elements/1.1/"
   xmlns:cc="http://creativecommons.org/ns#"
   xmlns:rdf="http://www.w3.org/1999/02/22-rdf-syntax-ns#"
   xmlns:svg="http://www.w3.org/2000/svg"
   xmlns="http://www.w3.org/2000/svg"
   xmlns:sodipodi="http://sodipodi.sourceforge.net/DTD/sodipodi-0.dtd"
   xmlns:inkscape="http://www.inkscape.org/namespaces/inkscape"
   width="3000"
   height="7.9997482"
   viewBox="0 0 793.74999 2.1166001"
   version="1.1"
   id="svg8"
   inkscape:version="0.92.2 (5c3e80d, 2017-08-06)"
   sodipodi:docname="bar2-8.svg">
  <defs
     id="defs2">
    <clipPath
       clipPathUnits="userSpaceOnUse"
       id="clipPath6519">
      <path
         inkscape:connector-curvature="0"
         id="path6521"
         d="m 33.828942,94.291949 v 0.52968 H 172.54606 v -0.52968 z m 0,3.176032 v 0.529164 H 172.54606 v -0.529164 z m 0,3.175519 v 0.52968 H 172.54606 v -0.52968 z m 0,3.17603 v 0.52917 H 172.54606 v -0.52917 z m 0,3.17552 v 0.52968 H 172.54606 v -0.52968 z m 0,3.17603 v 0.52917 H 172.54606 v -0.52917 z m 0,3.17552 v 0.52968 H 172.54606 v -0.52968 z m 0,3.17603 v 0.52917 H 172.54606 v -0.52917 z m 0,3.17552 v 0.52968 H 172.54606 v -0.52968 z m 0,3.17604 v 0.52917 H 172.54606 v -0.52917 z m 0,3.17604 v 0.52916 H 172.54606 v -0.52916 z m 0,3.17551 v 0.52917 H 172.54606 v -0.52917 z m 0,3.17604 v 0.52916 H 172.54606 v -0.52916 z m 0,3.17551 v 0.52917 H 172.54606 v -0.52917 z m 0,3.17604 v 0.52916 H 172.54606 v -0.52916 z m 0,3.17551 v 0.52917 H 172.54606 v -0.52917 z m 0,3.17604 v 0.52916 H 172.54606 v -0.52916 z m 0,3.17551 v 0.52917 H 172.54606 v -0.52917 z m 0,3.17604 v 0.52916 H 172.54606 v -0.52916 z m 0,3.17551 v 0.52917 H 172.54606 v -0.52917 z m 0,3.17604 v 0.52917 H 172.54606 v -0.52917 z m 0,3.17551 v 0.52917 H 172.54606 v -0.52917 z m 0,3.17604 v 0.52916 H 172.54606 v -0.52916 z m 0,3.17551 v 0.52917 H 172.54606 v -0.52917 z m 0,3.17604 v 0.52916 H 172.54606 v -0.52916 z m 0,3.17552 v 0.52916 H 172.54606 v -0.52916 z m 0,3.17603 v 0.52916 H 172.54606 v -0.52916 z m 0,3.17552 v 0.52916 H 172.54606 v -0.52916 z m 0,3.17603 v 0.52916 H 172.54606 v -0.52916 z m 0,3.17552 v 0.52968 H 172.54606 v -0.52968 z m 0,3.17603 v 0.52916 H 172.54606 v -0.52916 z m 0,3.17552 v 0.52968 H 172.54606 v -0.52968 z m 0,3.17603 v 0.52916 H 172.54606 v -0.52916 z m 0,3.17552 v 0.52968 H 172.54606 v -0.52968 z m 0,3.17603 V 202.798 H 172.54606 v -0.52917 z m 0,3.17551 v 0.52969 H 172.54606 v -0.52969 z m 0,3.17604 v 0.52917 H 172.54606 v -0.52917 z m 0,3.17551 v 0.52969 H 172.54606 v -0.52969 z m 0,3.17604 v 0.52917 H 172.54606 v -0.52917 z m 0,3.17552 v 0.52968 H 172.54606 v -0.52968 z m 0,3.17603 v 0.52917 H 172.54606 v -0.52917 z m 0,3.17552 v 0.52968 H 172.54606 V 224.499 Z m 0,3.17603 v 0.52917 H 172.54606 v -0.52917 z m 0,3.17552 v 0.52968 H 172.54606 v -0.52968 z m 0,3.17603 v 0.52917 H 172.54606 v -0.52917 z m 0,3.17552 v 0.52968 H 172.54606 v -0.52968 z m 0,3.17603 v 0.52917 H 172.54606 v -0.52917 z m 0,3.17552 v 0.52968 H 172.54606 v -0.52968 z"
         style="color:#000000;font-style:normal;font-variant:normal;font-weight:normal;font-stretch:normal;font-size:medium;line-height:normal;font-family:sans-serif;font-variant-ligatures:normal;font-variant-position:normal;font-variant-caps:normal;font-variant-numeric:normal;font-variant-alternates:normal;font-feature-settings:normal;text-indent:0;text-align:start;text-decoration:none;text-decoration-line:none;text-decoration-style:solid;text-decoration-color:#000000;letter-spacing:normal;word-spacing:normal;text-transform:none;writing-mode:lr-tb;direction:ltr;text-orientation:mixed;dominant-baseline:auto;baseline-shift:baseline;text-anchor:start;white-space:normal;shape-padding:0;clip-rule:nonzero;display:inline;overflow:visible;visibility:visible;opacity:1;isolation:auto;mix-blend-mode:normal;color-interpolation:sRGB;color-interpolation-filters:linearRGB;solid-color:#000000;solid-opacity:1;vector-effect:none;fill:#000000;fill-opacity:1;fill-rule:nonzero;stroke:none;stroke-width:0.52916664;stroke-linecap:butt;stroke-linejoin:miter;stroke-miterlimit:4;stroke-dasharray:none;stroke-dashoffset:0;stroke-opacity:1;color-rendering:auto;image-rendering:auto;shape-rendering:auto;text-rendering:auto;enable-background:accumulate" />
    </clipPath>
    <clipPath
       clipPathUnits="userSpaceOnUse"
       id="clipPath6525">
      <path
         inkscape:connector-curvature="0"
         id="path6527"
         d="M 33.828942,93.762777 V 94.29246 H 172.54606 v -0.529683 z m 0,3.176032 v 0.529167 H 172.54606 v -0.529167 z m 0,3.175521 v 0.52968 H 172.54606 v -0.52968 z m 0,3.17603 v 0.52917 H 172.54606 v -0.52917 z m 0,3.17552 v 0.52968 H 172.54606 v -0.52968 z m 0,3.17603 v 0.52917 H 172.54606 v -0.52917 z m 0,3.17552 v 0.52968 H 172.54606 v -0.52968 z m 0,3.17603 v 0.52917 H 172.54606 v -0.52917 z m 0,3.17552 v 0.52968 H 172.54606 v -0.52968 z m 0,3.17604 v 0.52917 H 172.54606 v -0.52917 z m 0,3.17604 v 0.52916 H 172.54606 v -0.52916 z m 0,3.17551 v 0.52917 H 172.54606 v -0.52917 z m 0,3.17604 v 0.52916 H 172.54606 v -0.52916 z m 0,3.17551 v 0.52917 H 172.54606 v -0.52917 z m 0,3.17604 v 0.52916 H 172.54606 v -0.52916 z m 0,3.17551 v 0.52917 H 172.54606 v -0.52917 z m 0,3.17604 v 0.52916 H 172.54606 v -0.52916 z m 0,3.17551 v 0.52917 H 172.54606 v -0.52917 z m 0,3.17604 v 0.52916 H 172.54606 v -0.52916 z m 0,3.17551 v 0.52917 H 172.54606 v -0.52917 z m 0,3.17604 v 0.52917 H 172.54606 v -0.52917 z m 0,3.17551 v 0.52917 H 172.54606 v -0.52917 z m 0,3.17604 v 0.52916 H 172.54606 v -0.52916 z m 0,3.17551 v 0.52917 H 172.54606 v -0.52917 z m 0,3.17604 v 0.52916 H 172.54606 v -0.52916 z m 0,3.17552 v 0.52916 H 172.54606 v -0.52916 z m 0,3.17603 v 0.52916 H 172.54606 v -0.52916 z m 0,3.17552 v 0.52916 H 172.54606 v -0.52916 z m 0,3.17603 v 0.52916 H 172.54606 v -0.52916 z m 0,3.17552 v 0.52968 H 172.54606 v -0.52968 z m 0,3.17603 v 0.52916 H 172.54606 v -0.52916 z m 0,3.17552 v 0.52968 H 172.54606 v -0.52968 z m 0,3.17603 v 0.52916 H 172.54606 v -0.52916 z m 0,3.17552 v 0.52968 H 172.54606 v -0.52968 z m 0,3.17603 v 0.52917 H 172.54606 v -0.52917 z m 0,3.17551 v 0.52969 H 172.54606 v -0.52969 z m 0,3.17604 v 0.52917 H 172.54606 v -0.52917 z m 0,3.17551 v 0.52969 H 172.54606 v -0.52969 z m 0,3.17604 v 0.52917 H 172.54606 v -0.52917 z m 0,3.17552 v 0.52968 H 172.54606 v -0.52968 z m 0,3.17603 v 0.52917 H 172.54606 v -0.52917 z m 0,3.17552 v 0.52968 H 172.54606 v -0.52968 z m 0,3.17603 v 0.52917 H 172.54606 v -0.52917 z m 0,3.17552 v 0.52968 H 172.54606 v -0.52968 z m 0,3.17603 v 0.52917 H 172.54606 v -0.52917 z m 0,3.17552 v 0.52968 H 172.54606 v -0.52968 z m 0,3.17603 v 0.52917 H 172.54606 v -0.52917 z m 0,3.17552 v 0.52968 H 172.54606 v -0.52968 z"
         style="color:#000000;font-style:normal;font-variant:normal;font-weight:normal;font-stretch:normal;font-size:medium;line-height:normal;font-family:sans-serif;font-variant-ligatures:normal;font-variant-position:normal;font-variant-caps:normal;font-variant-numeric:normal;font-variant-alternates:normal;font-feature-settings:normal;text-indent:0;text-align:start;text-decoration:none;text-decoration-line:none;text-decoration-style:solid;text-decoration-color:#000000;letter-spacing:normal;word-spacing:normal;text-transform:none;writing-mode:lr-tb;direction:ltr;text-orientation:mixed;dominant-baseline:auto;baseline-shift:baseline;text-anchor:start;white-space:normal;shape-padding:0;clip-rule:nonzero;display:inline;overflow:visible;visibility:visible;opacity:1;isolation:auto;mix-blend-mode:normal;color-interpolation:sRGB;color-interpolation-filters:linearRGB;solid-color:#000000;solid-opacity:1;vector-effect:none;fill:#000000;fill-opacity:1;fill-rule:nonzero;stroke:none;stroke-width:0.52916664;stroke-linecap:butt;stroke-linejoin:miter;stroke-miterlimit:4;stroke-dasharray:none;stroke-dashoffset:0;stroke-opacity:1;color-rendering:auto;image-rendering:auto;shape-rendering:auto;text-rendering:auto;enable-background:accumulate" />
    </clipPath>
    <clipPath
       clipPathUnits="userSpaceOnUse"
       id="clipPath6535">
      <path
         inkscape:connector-curvature="0"
         id="path6537"
         d="m 33.828942,93.233608 v 0.529683 H 172.54606 v -0.529683 z m 0,3.176032 v 0.529167 H 172.54606 V 96.40964 Z m 0,3.175521 v 0.529679 H 172.54606 v -0.529679 z m 0,3.176029 v 0.52917 H 172.54606 v -0.52917 z m 0,3.17552 v 0.52968 H 172.54606 v -0.52968 z m 0,3.17603 v 0.52917 H 172.54606 v -0.52917 z m 0,3.17552 v 0.52968 H 172.54606 v -0.52968 z m 0,3.17603 v 0.52917 H 172.54606 v -0.52917 z m 0,3.17552 v 0.52968 H 172.54606 v -0.52968 z m 0,3.17604 v 0.52917 H 172.54606 v -0.52917 z m 0,3.17604 v 0.52916 H 172.54606 v -0.52916 z m 0,3.17551 v 0.52917 H 172.54606 v -0.52917 z m 0,3.17604 v 0.52916 H 172.54606 v -0.52916 z m 0,3.17551 v 0.52917 H 172.54606 v -0.52917 z m 0,3.17604 v 0.52916 H 172.54606 v -0.52916 z m 0,3.17551 v 0.52917 H 172.54606 v -0.52917 z m 0,3.17604 v 0.52916 H 172.54606 v -0.52916 z m 0,3.17551 v 0.52917 H 172.54606 v -0.52917 z m 0,3.17604 v 0.52916 H 172.54606 v -0.52916 z m 0,3.17551 v 0.52917 H 172.54606 v -0.52917 z m 0,3.17604 v 0.52917 H 172.54606 v -0.52917 z m 0,3.17551 v 0.52917 H 172.54606 v -0.52917 z m 0,3.17604 v 0.52916 H 172.54606 v -0.52916 z m 0,3.17551 v 0.52917 H 172.54606 v -0.52917 z m 0,3.17604 v 0.52916 H 172.54606 v -0.52916 z m 0,3.17552 v 0.52916 H 172.54606 v -0.52916 z m 0,3.17603 v 0.52916 H 172.54606 v -0.52916 z m 0,3.17552 v 0.52916 H 172.54606 v -0.52916 z m 0,3.17603 V 182.685 H 172.54606 v -0.52916 z m 0,3.17552 v 0.52968 H 172.54606 v -0.52968 z m 0,3.17603 v 0.52916 H 172.54606 v -0.52916 z m 0,3.17552 v 0.52968 H 172.54606 v -0.52968 z m 0,3.17603 v 0.52916 H 172.54606 v -0.52916 z m 0,3.17552 v 0.52968 H 172.54606 v -0.52968 z m 0,3.17603 v 0.52917 H 172.54606 v -0.52917 z m 0,3.17551 v 0.52969 H 172.54606 V 204.386 Z m 0,3.17604 v 0.52917 H 172.54606 v -0.52917 z m 0,3.17551 v 0.52969 H 172.54606 v -0.52969 z m 0,3.17604 v 0.52917 H 172.54606 v -0.52917 z m 0,3.17552 v 0.52968 H 172.54606 v -0.52968 z m 0,3.17603 v 0.52917 H 172.54606 v -0.52917 z m 0,3.17552 v 0.52968 H 172.54606 v -0.52968 z m 0,3.17603 v 0.52917 H 172.54606 v -0.52917 z m 0,3.17552 v 0.52968 H 172.54606 v -0.52968 z m 0,3.17603 v 0.52917 H 172.54606 v -0.52917 z m 0,3.17552 v 0.52968 H 172.54606 v -0.52968 z m 0,3.17603 v 0.52917 H 172.54606 v -0.52917 z m 0,3.17552 v 0.52968 H 172.54606 v -0.52968 z"
         style="color:#000000;font-style:normal;font-variant:normal;font-weight:normal;font-stretch:normal;font-size:medium;line-height:normal;font-family:sans-serif;font-variant-ligatures:normal;font-variant-position:normal;font-variant-caps:normal;font-variant-numeric:normal;font-variant-alternates:normal;font-feature-settings:normal;text-indent:0;text-align:start;text-decoration:none;text-decoration-line:none;text-decoration-style:solid;text-decoration-color:#000000;letter-spacing:normal;word-spacing:normal;text-transform:none;writing-mode:lr-tb;direction:ltr;text-orientation:mixed;dominant-baseline:auto;baseline-shift:baseline;text-anchor:start;white-space:normal;shape-padding:0;clip-rule:nonzero;display:inline;overflow:visible;visibility:visible;opacity:1;isolation:auto;mix-blend-mode:normal;color-interpolation:sRGB;color-interpolation-filters:linearRGB;solid-color:#000000;solid-opacity:1;vector-effect:none;fill:#000000;fill-opacity:1;fill-rule:nonzero;stroke:none;stroke-width:0.52916664;stroke-linecap:butt;stroke-linejoin:miter;stroke-miterlimit:4;stroke-dasharray:none;stroke-dashoffset:0;stroke-opacity:1;color-rendering:auto;image-rendering:auto;shape-rendering:auto;text-rendering:auto;enable-background:accumulate" />
    </clipPath>
    <clipPath
       clipPathUnits="userSpaceOnUse"
       id="clipPath6541">
      <path
         inkscape:connector-curvature="0"
         id="path6543"
         d="m 33.828942,92.704444 v 0.529683 H 172.54606 v -0.529683 z m 0,3.176032 v 0.529167 H 172.54606 v -0.529167 z m 0,3.175521 v 0.52968 H 172.54606 v -0.52968 z m 0,3.176033 v 0.52917 H 172.54606 v -0.52917 z m 0,3.17552 v 0.52968 H 172.54606 v -0.52968 z m 0,3.17603 v 0.52917 H 172.54606 v -0.52917 z m 0,3.17552 v 0.52968 H 172.54606 v -0.52968 z m 0,3.17603 v 0.52917 H 172.54606 v -0.52917 z m 0,3.17552 v 0.52968 H 172.54606 v -0.52968 z m 0,3.17604 v 0.52917 H 172.54606 v -0.52917 z m 0,3.17604 v 0.52916 H 172.54606 v -0.52916 z m 0,3.17551 v 0.52917 H 172.54606 v -0.52917 z m 0,3.17604 v 0.52916 H 172.54606 v -0.52916 z m 0,3.17551 v 0.52917 H 172.54606 v -0.52917 z m 0,3.17604 v 0.52916 H 172.54606 v -0.52916 z m 0,3.17551 v 0.52917 H 172.54606 v -0.52917 z m 0,3.17604 v 0.52916 H 172.54606 v -0.52916 z m 0,3.17551 v 0.52917 H 172.54606 v -0.52917 z m 0,3.17604 v 0.52916 H 172.54606 v -0.52916 z m 0,3.17551 v 0.52917 H 172.54606 v -0.52917 z m 0,3.17604 v 0.52917 H 172.54606 v -0.52917 z m 0,3.17551 v 0.52917 H 172.54606 v -0.52917 z m 0,3.17604 v 0.52916 H 172.54606 v -0.52916 z m 0,3.17551 v 0.52917 H 172.54606 v -0.52917 z m 0,3.17604 v 0.52916 H 172.54606 v -0.52916 z m 0,3.17552 v 0.52916 H 172.54606 v -0.52916 z m 0,3.17603 v 0.52916 H 172.54606 v -0.52916 z m 0,3.17552 v 0.52916 H 172.54606 v -0.52916 z m 0,3.17603 v 0.52916 H 172.54606 v -0.52916 z m 0,3.17552 v 0.52968 H 172.54606 v -0.52968 z m 0,3.17603 v 0.52916 H 172.54606 v -0.52916 z m 0,3.17552 v 0.52968 H 172.54606 v -0.52968 z m 0,3.17603 v 0.52916 H 172.54606 v -0.52916 z m 0,3.17552 v 0.52968 H 172.54606 v -0.52968 z m 0,3.17603 v 0.52917 H 172.54606 v -0.52917 z m 0,3.17551 v 0.52969 H 172.54606 v -0.52969 z m 0,3.17604 v 0.52917 H 172.54606 v -0.52917 z m 0,3.17551 v 0.52969 H 172.54606 v -0.52969 z m 0,3.17604 v 0.52917 H 172.54606 v -0.52917 z m 0,3.17552 v 0.52968 H 172.54606 v -0.52968 z m 0,3.17603 v 0.52917 H 172.54606 v -0.52917 z m 0,3.17552 v 0.52968 H 172.54606 v -0.52968 z m 0,3.17603 v 0.52917 H 172.54606 v -0.52917 z m 0,3.17552 v 0.52968 H 172.54606 v -0.52968 z m 0,3.17603 v 0.52917 H 172.54606 v -0.52917 z m 0,3.17552 v 0.52968 H 172.54606 v -0.52968 z m 0,3.17603 v 0.52917 H 172.54606 v -0.52917 z m 0,3.17552 v 0.52968 H 172.54606 v -0.52968 z"
         style="color:#000000;font-style:normal;font-variant:normal;font-weight:normal;font-stretch:normal;font-size:medium;line-height:normal;font-family:sans-serif;font-variant-ligatures:normal;font-variant-position:normal;font-variant-caps:normal;font-variant-numeric:normal;font-variant-alternates:normal;font-feature-settings:normal;text-indent:0;text-align:start;text-decoration:none;text-decoration-line:none;text-decoration-style:solid;text-decoration-color:#000000;letter-spacing:normal;word-spacing:normal;text-transform:none;writing-mode:lr-tb;direction:ltr;text-orientation:mixed;dominant-baseline:auto;baseline-shift:baseline;text-anchor:start;white-space:normal;shape-padding:0;clip-rule:nonzero;display:inline;overflow:visible;visibility:visible;opacity:1;isolation:auto;mix-blend-mode:normal;color-interpolation:sRGB;color-interpolation-filters:linearRGB;solid-color:#000000;solid-opacity:1;vector-effect:none;fill:#000000;fill-opacity:1;fill-rule:nonzero;stroke:none;stroke-width:0.52916664;stroke-linecap:butt;stroke-linejoin:miter;stroke-miterlimit:4;stroke-dasharray:none;stroke-dashoffset:0;stroke-opacity:1;color-rendering:auto;image-rendering:auto;shape-rendering:auto;text-rendering:auto;enable-background:accumulate" />
    </clipPath>
    <clipPath
       clipPathUnits="userSpaceOnUse"
       id="clipPath6547">
      <path
         inkscape:connector-curvature="0"
         id="path6549"
         d="m 33.828942,92.175275 v 0.529682 H 172.54606 v -0.529682 z m 0,3.176032 v 0.529166 H 172.54606 v -0.529166 z m 0,3.175521 v 0.529677 H 172.54606 v -0.529677 z m 0,3.176032 v 0.52917 H 172.54606 v -0.52917 z m 0,3.17552 v 0.52968 H 172.54606 v -0.52968 z m 0,3.17603 v 0.52917 H 172.54606 v -0.52917 z m 0,3.17552 v 0.52968 H 172.54606 v -0.52968 z m 0,3.17603 v 0.52917 H 172.54606 v -0.52917 z m 0,3.17552 v 0.52968 H 172.54606 v -0.52968 z m 0,3.17604 v 0.52917 H 172.54606 v -0.52917 z m 0,3.17604 v 0.52916 H 172.54606 v -0.52916 z m 0,3.17551 v 0.52917 H 172.54606 v -0.52917 z m 0,3.17604 v 0.52916 H 172.54606 v -0.52916 z m 0,3.17551 v 0.52917 H 172.54606 v -0.52917 z m 0,3.17604 v 0.52916 H 172.54606 v -0.52916 z m 0,3.17551 v 0.52917 H 172.54606 v -0.52917 z m 0,3.17604 v 0.52916 H 172.54606 v -0.52916 z m 0,3.17551 v 0.52917 H 172.54606 v -0.52917 z m 0,3.17604 v 0.52916 H 172.54606 v -0.52916 z m 0,3.17551 v 0.52917 H 172.54606 v -0.52917 z m 0,3.17604 v 0.52917 H 172.54606 v -0.52917 z m 0,3.17551 v 0.52917 H 172.54606 v -0.52917 z m 0,3.17604 v 0.52916 H 172.54606 v -0.52916 z m 0,3.17551 v 0.52917 H 172.54606 v -0.52917 z m 0,3.17604 v 0.52916 H 172.54606 v -0.52916 z m 0,3.17552 v 0.52916 H 172.54606 v -0.52916 z m 0,3.17603 v 0.52916 H 172.54606 v -0.52916 z m 0,3.17552 v 0.52916 H 172.54606 v -0.52916 z m 0,3.17603 v 0.52916 H 172.54606 v -0.52916 z m 0,3.17552 v 0.52968 H 172.54606 v -0.52968 z m 0,3.17603 v 0.52916 H 172.54606 v -0.52916 z m 0,3.17552 v 0.52968 H 172.54606 v -0.52968 z m 0,3.17603 v 0.52916 H 172.54606 v -0.52916 z m 0,3.17552 v 0.52968 H 172.54606 v -0.52968 z m 0,3.17603 v 0.52917 H 172.54606 v -0.52917 z m 0,3.17551 v 0.52969 H 172.54606 v -0.52969 z m 0,3.17604 v 0.52917 H 172.54606 v -0.52917 z m 0,3.17551 v 0.52969 H 172.54606 v -0.52969 z m 0,3.17604 v 0.52917 H 172.54606 v -0.52917 z m 0,3.17552 v 0.52968 H 172.54606 v -0.52968 z m 0,3.17603 v 0.52917 H 172.54606 v -0.52917 z m 0,3.17552 v 0.52968 H 172.54606 v -0.52968 z m 0,3.17603 v 0.52917 H 172.54606 v -0.52917 z m 0,3.17552 v 0.52968 H 172.54606 v -0.52968 z m 0,3.17603 v 0.52917 H 172.54606 v -0.52917 z m 0,3.17552 v 0.52968 H 172.54606 v -0.52968 z m 0,3.17603 v 0.52917 H 172.54606 v -0.52917 z m 0,3.17552 v 0.52968 H 172.54606 v -0.52968 z"
         style="color:#000000;font-style:normal;font-variant:normal;font-weight:normal;font-stretch:normal;font-size:medium;line-height:normal;font-family:sans-serif;font-variant-ligatures:normal;font-variant-position:normal;font-variant-caps:normal;font-variant-numeric:normal;font-variant-alternates:normal;font-feature-settings:normal;text-indent:0;text-align:start;text-decoration:none;text-decoration-line:none;text-decoration-style:solid;text-decoration-color:#000000;letter-spacing:normal;word-spacing:normal;text-transform:none;writing-mode:lr-tb;direction:ltr;text-orientation:mixed;dominant-baseline:auto;baseline-shift:baseline;text-anchor:start;white-space:normal;shape-padding:0;clip-rule:nonzero;display:inline;overflow:visible;visibility:visible;opacity:1;isolation:auto;mix-blend-mode:normal;color-interpolation:sRGB;color-interpolation-filters:linearRGB;solid-color:#000000;solid-opacity:1;vector-effect:none;fill:#000000;fill-opacity:1;fill-rule:nonzero;stroke:none;stroke-width:0.52916664;stroke-linecap:butt;stroke-linejoin:miter;stroke-miterlimit:4;stroke-dasharray:none;stroke-dashoffset:0;stroke-opacity:1;color-rendering:auto;image-rendering:auto;shape-rendering:auto;text-rendering:auto;enable-background:accumulate" />
    </clipPath>
    <clipPath
       clipPathUnits="userSpaceOnUse"
       id="clipPath6553">
      <path
         inkscape:connector-curvature="0"
         id="path6555"
         d="m 33.828942,91.646105 v 0.529683 H 172.54606 v -0.529683 z m 0,3.176032 v 0.529167 H 172.54606 v -0.529167 z m 0,3.175521 v 0.529678 H 172.54606 v -0.529678 z m 0,3.176032 v 0.52917 H 172.54606 v -0.52917 z m 0,3.17552 v 0.52968 H 172.54606 v -0.52968 z m 0,3.17603 v 0.52917 H 172.54606 v -0.52917 z m 0,3.17552 v 0.52968 H 172.54606 v -0.52968 z m 0,3.17603 v 0.52917 H 172.54606 v -0.52917 z m 0,3.17552 v 0.52968 H 172.54606 v -0.52968 z m 0,3.17604 v 0.52917 H 172.54606 v -0.52917 z m 0,3.17604 v 0.52916 H 172.54606 v -0.52916 z m 0,3.17551 v 0.52917 H 172.54606 v -0.52917 z m 0,3.17604 v 0.52916 H 172.54606 v -0.52916 z m 0,3.17551 v 0.52917 H 172.54606 v -0.52917 z m 0,3.17604 v 0.52916 H 172.54606 v -0.52916 z m 0,3.17551 v 0.52917 H 172.54606 V 139.283 Z m 0,3.17604 v 0.52916 H 172.54606 v -0.52916 z m 0,3.17551 v 0.52917 H 172.54606 v -0.52917 z m 0,3.17604 v 0.52916 H 172.54606 v -0.52916 z m 0,3.17551 v 0.52917 H 172.54606 v -0.52917 z m 0,3.17604 v 0.52917 H 172.54606 v -0.52917 z m 0,3.17551 v 0.52917 H 172.54606 v -0.52917 z m 0,3.17604 v 0.52916 H 172.54606 v -0.52916 z m 0,3.17551 v 0.52917 H 172.54606 v -0.52917 z m 0,3.17604 v 0.52916 H 172.54606 v -0.52916 z m 0,3.17552 v 0.52916 H 172.54606 v -0.52916 z m 0,3.17603 v 0.52916 H 172.54606 v -0.52916 z m 0,3.17552 v 0.52916 H 172.54606 v -0.52916 z m 0,3.17603 v 0.52916 H 172.54606 v -0.52916 z m 0,3.17552 v 0.52968 H 172.54606 v -0.52968 z m 0,3.17603 v 0.52916 H 172.54606 v -0.52916 z m 0,3.17552 v 0.52968 H 172.54606 v -0.52968 z m 0,3.17603 v 0.52916 H 172.54606 v -0.52916 z m 0,3.17552 v 0.52968 H 172.54606 v -0.52968 z m 0,3.17603 v 0.52917 H 172.54606 v -0.52917 z m 0,3.17551 v 0.52969 H 172.54606 v -0.52969 z m 0,3.17604 v 0.52917 H 172.54606 v -0.52917 z m 0,3.17551 v 0.52969 H 172.54606 v -0.52969 z m 0,3.17604 v 0.52917 H 172.54606 v -0.52917 z m 0,3.17552 v 0.52968 H 172.54606 v -0.52968 z m 0,3.17603 v 0.52917 H 172.54606 v -0.52917 z m 0,3.17552 v 0.52968 H 172.54606 v -0.52968 z m 0,3.17603 v 0.52917 H 172.54606 v -0.52917 z m 0,3.17552 v 0.52968 H 172.54606 v -0.52968 z m 0,3.17603 v 0.52917 H 172.54606 v -0.52917 z m 0,3.17552 v 0.52968 H 172.54606 v -0.52968 z m 0,3.17603 v 0.52917 H 172.54606 v -0.52917 z m 0,3.17552 v 0.52968 H 172.54606 v -0.52968 z"
         style="color:#000000;font-style:normal;font-variant:normal;font-weight:normal;font-stretch:normal;font-size:medium;line-height:normal;font-family:sans-serif;font-variant-ligatures:normal;font-variant-position:normal;font-variant-caps:normal;font-variant-numeric:normal;font-variant-alternates:normal;font-feature-settings:normal;text-indent:0;text-align:start;text-decoration:none;text-decoration-line:none;text-decoration-style:solid;text-decoration-color:#000000;letter-spacing:normal;word-spacing:normal;text-transform:none;writing-mode:lr-tb;direction:ltr;text-orientation:mixed;dominant-baseline:auto;baseline-shift:baseline;text-anchor:start;white-space:normal;shape-padding:0;clip-rule:nonzero;display:inline;overflow:visible;visibility:visible;opacity:1;isolation:auto;mix-blend-mode:normal;color-interpolation:sRGB;color-interpolation-filters:linearRGB;solid-color:#000000;solid-opacity:1;vector-effect:none;fill:#000000;fill-opacity:1;fill-rule:nonzero;stroke:none;stroke-width:0.52916664;stroke-linecap:butt;stroke-linejoin:miter;stroke-miterlimit:4;stroke-dasharray:none;stroke-dashoffset:0;stroke-opacity:1;color-rendering:auto;image-rendering:auto;shape-rendering:auto;text-rendering:auto;enable-background:accumulate" />
    </clipPath>
  </defs>
  <sodipodi:namedview
     id="base"
     pagecolor="#ffffff"
     bordercolor="#666666"
     borderopacity="1.0"
     inkscape:pageopacity="0.0"
     inkscape:pageshadow="2"
     inkscape:zoom="11.313708"
     inkscape:cx="33.349541"
     inkscape:cy="-11.062634"
     inkscape:document-units="px"
     inkscape:current-layer="g5272"
     showgrid="false"
     units="px"
     inkscape:window-width="2560"
     inkscape:window-height="1377"
     inkscape:window-x="2552"
     inkscape:window-y="-8"
     inkscape:window-maximized="1"
     inkscape:snap-global="true"
     inkscape:showpageshadow="false"
     fit-margin-top="0"
     fit-margin-left="0"
     fit-margin-right="0"
     fit-margin-bottom="0" />
  <metadata
     id="metadata5">
    <rdf:RDF>
      <cc:Work
         rdf:about="">
        <dc:format>image/svg+xml</dc:format>
        <dc:type
           rdf:resource="http://purl.org/dc/dcmitype/StillImage" />
        <dc:title></dc:title>
      </cc:Work>
    </rdf:RDF>
  </metadata>
  <g
     inkscape:groupmode="layer"
     id="layer2"
     inkscape:label="0"
     style="display:inline"
     transform="translate(-431.25473,-211.61405)" />
  <g
     inkscape:groupmode="layer"
     id="layer3"
     inkscape:label="2"
     style="display:inline"
     transform="translate(-431.25473,-211.61405)" />
  <g
     inkscape:groupmode="layer"
     id="layer4"
     inkscape:label="4"
     style="display:inline"
     transform="translate(-431.25473,-211.61405)" />
  <g
     inkscape:groupmode="layer"
     id="layer5"
     inkscape:label="6"
     style="display:inline"
     transform="translate(-431.25473,-211.61405)" />
  <g
     inkscape:groupmode="layer"
     id="layer6"
     inkscape:label="8"
     style="display:inline"
     transform="translate(-431.25473,-211.61405)" />
  <g
     inkscape:groupmode="layer"
     id="layer7"
     inkscape:label="10"
     style="display:inline"
     transform="translate(-431.25473,-211.61405)" />
  <g
     inkscape:label="Lines"
     inkscape:groupmode="layer"
     id="layer1"
     style="display:inline"
     transform="translate(-431.25473,-211.61405)">
    <g
       id="g5272">
      <path
         id="path5253"
         d="m -276.75416,199.23641 c 0,0 0.009,1.32802 0,1.32809 h 793.75 v -1.32809 z"
         style="color:#000000;font-style:normal;font-variant:normal;font-weight:normal;font-stretch:normal;font-size:medium;line-height:normal;font-family:sans-serif;font-variant-ligatures:normal;font-variant-position:normal;font-variant-caps:normal;font-variant-numeric:normal;font-variant-alternates:normal;font-feature-settings:normal;text-indent:0;text-align:start;text-decoration:none;text-decoration-line:none;text-decoration-style:solid;text-decoration-color:#000000;letter-spacing:normal;word-spacing:normal;text-transform:none;writing-mode:lr-tb;direction:ltr;text-orientation:mixed;dominant-baseline:auto;baseline-shift:baseline;text-anchor:start;white-space:normal;shape-padding:0;clip-rule:nonzero;display:inline;overflow:visible;visibility:visible;opacity:1;isolation:auto;mix-blend-mode:normal;color-interpolation:sRGB;color-interpolation-filters:linearRGB;solid-color:#000000;solid-opacity:1;vector-effect:none;fill:#000000;fill-opacity:1;fill-rule:nonzero;stroke:none;stroke-width:1.46386623px;stroke-linecap:butt;stroke-linejoin:miter;stroke-miterlimit:4;stroke-dasharray:none;stroke-dashoffset:0;stroke-opacity:1;color-rendering:auto;image-rendering:auto;shape-rendering:auto;text-rendering:auto;enable-background:accumulate"
         inkscape:connector-curvature="0"
         sodipodi:nodetypes="ccccc" />
      <path
         style="color:#000000;font-style:normal;font-variant:normal;font-weight:normal;font-stretch:normal;font-size:medium;line-height:normal;font-family:sans-serif;font-variant-ligatures:normal;font-variant-position:normal;font-variant-caps:normal;font-variant-numeric:normal;font-variant-alternates:normal;font-feature-settings:normal;text-indent:0;text-align:start;text-decoration:none;text-decoration-line:none;text-decoration-style:solid;text-decoration-color:#000000;letter-spacing:normal;word-spacing:normal;text-transform:none;writing-mode:lr-tb;direction:ltr;text-orientation:mixed;dominant-baseline:auto;baseline-shift:baseline;text-anchor:start;white-space:normal;shape-padding:0;clip-rule:nonzero;display:inline;overflow:visible;visibility:visible;opacity:1;isolation:auto;mix-blend-mode:normal;color-interpolation:sRGB;color-interpolation-filters:linearRGB;solid-color:#000000;solid-opacity:1;vector-effect:none;fill:#000000;fill-opacity:1;fill-rule:nonzero;stroke:none;stroke-width:4.37681293;stroke-linecap:butt;stroke-linejoin:miter;stroke-miterlimit:4;stroke-dasharray:none;stroke-dashoffset:0;stroke-opacity:1;color-rendering:auto;image-rendering:auto;shape-rendering:auto;text-rendering:auto;enable-background:accumulate"
         d="m 431.26356,211.61405 v 1.5875 h 793.72824 v -1.5875 z"
         id="path5376"
         inkscape:connector-curvature="0"
         sodipodi:nodetypes="ccccc" />
    </g>
  </g>
</svg>
